# Blender v2.78 (sub 0) OBJ File: 'Compass Arrow.blend'
# www.blender.org
o South_Cube.001
v 0.000000 0.000000 -0.250000
v 0.000000 -3.000000 -0.000000
v -1.000000 0.000000 0.000000
v 0.000000 0.000000 0.250000
v 1.000000 0.000000 0.000000
vt 0.2500 0.5000
vt 0.5000 1.0000
vt 0.0000 0.5556
vt 0.5000 0.0000
vt 0.7500 0.5000
vt 0.5000 0.5556
vt 0.5000 0.4444
vt 1.0000 0.4444
vn -0.2417 -0.0806 -0.9670
vn -0.2417 -0.0806 0.9670
vn 0.2417 -0.0806 -0.9670
vn 0.2417 -0.0806 0.9670
s off
f 1/1/1 2/2/1 3/3/1
f 2/4/2 4/5/2 3/6/2
f 1/1/3 5/7/3 2/2/3
f 4/5/4 2/4/4 5/8/4
