# Blender v2.78 (sub 0) OBJ File: 'Compass Arrow.blend'
# www.blender.org
o Cube_Cube.003
v 0.000000 0.000000 -0.250000
v 0.000000 -3.000000 -0.000000
v -1.000000 0.000000 0.000000
v 0.000000 0.000000 0.250000
v 0.000000 3.000000 0.000000
v 1.000000 0.000000 0.000000
vt 0.2500 0.5000
vt 0.5000 1.0000
vt 0.0000 0.5556
vt 0.5000 0.0000
vt 0.7500 0.5000
vt 0.5000 0.5556
vt 0.0000 0.0000
vt 1.0000 1.0000
vt 0.5000 0.4444
vt 1.0000 0.4444
vn -0.2417 -0.0806 -0.9670
vn -0.2417 -0.0806 0.9670
vn -0.2417 0.0806 -0.9670
vn -0.2417 0.0806 0.9670
vn 0.2417 -0.0806 -0.9670
vn 0.2417 -0.0806 0.9670
vn 0.2417 0.0806 -0.9670
vn 0.2417 0.0806 0.9670
s off
f 1/1/1 2/2/1 3/3/1
f 2/4/2 4/5/2 3/6/2
f 1/1/3 3/3/3 5/7/3
f 4/5/4 5/8/4 3/6/4
f 1/1/5 6/9/5 2/2/5
f 4/5/6 2/4/6 6/10/6
f 1/1/7 5/7/7 6/9/7
f 4/5/8 6/10/8 5/8/8
